# xmcd
#
# Track frame offsets: 
#        150
#        14852
#        32505
#        50208
#        64930
#        76666
#        92903
#        104595
#        116109
#        129363
#        142229
#        154476
#        165065
#        175872
#        186689
#        211477
#        223355
#        233156
#
# Disc length: 3285 seconds
#
# Revision: 2
# Processed by: cddbd v1.5.2PL0 Copyright (c) Steve Scherf et al.
# Submitted via: ExactAudioCopyFreeDBPlugin 1.0
#
DISCID=150cd312
DTITLE=Various Artist - World Tour-American Roots-Country Classics CD
DTITLE=1
DYEAR=2008
DGENRE=Country
TTITLE0=The Bellamy Brothers - Let Your Love Flow
TTITLE1=Linda Ronstadt - Blue Bayou
TTITLE2=Don Williams - If You Could Read My Mind
TTITLE3=Glen Campbell - Rhinestone Cowboy
TTITLE4=Tennessee Ernie Ford - Sixteen Tons
TTITLE5=Billie Jo Spears - Blanket On The Ground
TTITLE6=Johnny Cash - Ring Of Fire
TTITLE7=Waylon Jennings - Willie Nelson - Mammas, Don't Let Your Babie
TTITLE7=s Grow Up To Be Cowboys
TTITLE8=Tammy Wynette - D-I-V-O-R-C-E
TTITLE9=Kenny Rogers - Baby, Don't Take Your Love To Town
TTITLE10=Hank Williams - Lovesick Blues
TTITLE11=Emmylou Harris - Mr. Sandman
TTITLE12=Charley Pride and The Jordanaires - Mississippi Cotton Picking 
TTITLE12=Delta Town
TTITLE13=Porter Wagoner - Green, Green Grass Of Home
TTITLE14=Homer and Jethro - (How Much Is) That Doggie In The Window
TTITLE15=Jim Reeves - Mexican Joe
TTITLE16=Eddy Arnold and the Tennessee Plowboys and his Guitar - I Wan
TTITLE16=na Play House With You
TTITLE17=Hank Snow - A Good Gal Is Hard To Find
EXTD=
EXTT0=
EXTT1=
EXTT2=
EXTT3=
EXTT4=
EXTT5=
EXTT6=
EXTT7=
EXTT8=
EXTT9=
EXTT10=
EXTT11=
EXTT12=
EXTT13=
EXTT14=
EXTT15=
EXTT16=
EXTT17=
PLAYORDER=
